<?xml version="1.0" encoding="UTF-8" standalone="no"?>
<!DOCTYPE svg PUBLIC "-//W3C//DTD SVG 1.1//EN"
 "http://www.w3.org/Graphics/SVG/1.1/DTD/svg11.dtd">
<!-- Generated by graphviz version 2.49.3 (0)
 -->
<!-- Title: pipewire Pages: 1 -->
<svg width="1212pt" height="852pt"
 viewBox="0.00 0.00 1211.50 852.00" xmlns="http://www.w3.org/2000/svg" xmlns:xlink="http://www.w3.org/1999/xlink">
<g id="graph0" class="graph" transform="scale(1 1) rotate(0) translate(4 848)">
<title>pipewire</title>
<polygon fill="white" stroke="transparent" points="-4,4 -4,-848 1207.5,-848 1207.5,4 -4,4"/>
<g id="clust1" class="cluster">
<title>cluster_node_69</title>
<polygon fill="palegreen" stroke="black" points="716,-8 716,-418 1174,-418 1174,-8 716,-8"/>
<text text-anchor="start" x="724" y="-399.6" font-family="Times,serif" font-size="18.00">node_id: 69</text>
<text text-anchor="start" x="724" y="-379.6" font-family="Times,serif" font-size="18.00">name: Pixel 3 &#45; Output &#45; Headset Audio Gateway</text>
<text text-anchor="start" x="724" y="-359.6" font-family="Times,serif" font-size="18.00">media_class: Stream/Input/Audio</text>
</g>
<g id="clust2" class="cluster">
<title>cluster_node_68</title>
<polygon fill="palegreen" stroke="black" points="0,-583 0,-821 443,-821 443,-583 0,-583"/>
<text text-anchor="start" x="8" y="-802.6" font-family="Times,serif" font-size="18.00">node_id: 68</text>
<text text-anchor="start" x="8" y="-782.6" font-family="Times,serif" font-size="18.00">name: Pixel 3 &#45; Input &#45; Headset Audio Gateway</text>
<text text-anchor="start" x="8" y="-762.6" font-family="Times,serif" font-size="18.00">media_class: Stream/Output/Audio</text>
</g>
<g id="clust3" class="cluster">
<title>cluster_node_62</title>
<polygon fill="palegreen" stroke="black" points="686.5,-426 686.5,-836 1203.5,-836 1203.5,-426 686.5,-426"/>
<text text-anchor="start" x="694.5" y="-817.6" font-family="Times,serif" font-size="18.00">node_id: 62</text>
<text text-anchor="start" x="694.5" y="-797.6" font-family="Times,serif" font-size="18.00">name: Bose QC 35 ii Headphones &#45; Output &#45; A2DP Sink</text>
<text text-anchor="start" x="694.5" y="-777.6" font-family="Times,serif" font-size="18.00">media_class: Audio/Sink</text>
</g>
<g id="clust4" class="cluster">
<title>cluster_node_49</title>
<polygon fill="palegreen" stroke="black" points="48.5,-180 48.5,-418 395.5,-418 395.5,-180 48.5,-180"/>
<text text-anchor="start" x="56.5" y="-399.6" font-family="Times,serif" font-size="18.00">node_id: 49</text>
<text text-anchor="start" x="56.5" y="-379.6" font-family="Times,serif" font-size="18.00">name: Yeti Blue Nano &#45; Input &#45; ALSA</text>
<text text-anchor="start" x="56.5" y="-359.6" font-family="Times,serif" font-size="18.00">media_class: Audio/Source</text>
</g>
<!-- link_79 -->
<g id="node1" class="node">
<title>link_79</title>
<polygon fill="lightblue" stroke="black" points="659.5,-402 470.5,-402 470.5,-274 659.5,-274 659.5,-402"/>
<text text-anchor="start" x="478.5" y="-383.6" font-family="Times,serif" font-size="18.00">link_id: 79</text>
<text text-anchor="start" x="478.5" y="-363.6" font-family="Times,serif" font-size="18.00">output_node_id: 49</text>
<text text-anchor="start" x="478.5" y="-343.6" font-family="Times,serif" font-size="18.00">input_node_id: 69</text>
<text text-anchor="start" x="478.5" y="-323.6" font-family="Times,serif" font-size="18.00">output_port_id: 56</text>
<text text-anchor="start" x="478.5" y="-303.6" font-family="Times,serif" font-size="18.00">input_port_id: 76</text>
<text text-anchor="start" x="478.5" y="-283.6" font-family="Times,serif" font-size="18.00">state: active</text>
</g>
<!-- port_76 -->
<g id="node3" class="node">
<title>port_76</title>
<polygon fill="#8470ff" stroke="black" points="1025,-342 864,-342 864,-274 1025,-274 1025,-342"/>
<text text-anchor="start" x="872" y="-323.6" font-family="Times,serif" font-size="18.00">port_id: 76</text>
<text text-anchor="start" x="872" y="-303.6" font-family="Times,serif" font-size="18.00">name: input_FR</text>
<text text-anchor="start" x="872" y="-283.6" font-family="Times,serif" font-size="18.00">direction: input</text>
</g>
<!-- link_79&#45;&gt;port_76 -->
<g id="edge2" class="edge">
<title>link_79&#45;&gt;port_76</title>
<path fill="none" stroke="black" d="M659.78,-308C659.78,-308 853.75,-308 853.75,-308"/>
<polygon fill="black" stroke="black" points="853.75,-311.5 863.75,-308 853.75,-304.5 853.75,-311.5"/>
</g>
<!-- port_56 -->
<g id="node2" class="node">
<title>port_56</title>
<polygon fill="lightcoral" stroke="black" points="312.5,-342 130.5,-342 130.5,-274 312.5,-274 312.5,-342"/>
<text text-anchor="start" x="138.5" y="-323.6" font-family="Times,serif" font-size="18.00">port_id: 56</text>
<text text-anchor="start" x="138.5" y="-303.6" font-family="Times,serif" font-size="18.00">name: capture_FR</text>
<text text-anchor="start" x="138.5" y="-283.6" font-family="Times,serif" font-size="18.00">direction: output</text>
</g>
<!-- port_56&#45;&gt;link_79 -->
<g id="edge1" class="edge">
<title>port_56&#45;&gt;link_79</title>
<path fill="none" stroke="black" d="M312.65,-308C312.65,-308 460.43,-308 460.43,-308"/>
<polygon fill="black" stroke="black" points="460.43,-311.5 470.43,-308 460.43,-304.5 460.43,-311.5"/>
</g>
<!-- link_78 -->
<g id="node4" class="node">
<title>link_78</title>
<polygon fill="lightblue" stroke="black" points="659.5,-256 470.5,-256 470.5,-128 659.5,-128 659.5,-256"/>
<text text-anchor="start" x="478.5" y="-237.6" font-family="Times,serif" font-size="18.00">link_id: 78</text>
<text text-anchor="start" x="478.5" y="-217.6" font-family="Times,serif" font-size="18.00">output_node_id: 49</text>
<text text-anchor="start" x="478.5" y="-197.6" font-family="Times,serif" font-size="18.00">input_node_id: 69</text>
<text text-anchor="start" x="478.5" y="-177.6" font-family="Times,serif" font-size="18.00">output_port_id: 55</text>
<text text-anchor="start" x="478.5" y="-157.6" font-family="Times,serif" font-size="18.00">input_port_id: 74</text>
<text text-anchor="start" x="478.5" y="-137.6" font-family="Times,serif" font-size="18.00">state: active</text>
</g>
<!-- port_74 -->
<g id="node6" class="node">
<title>port_74</title>
<polygon fill="#8470ff" stroke="black" points="1024,-256 865,-256 865,-188 1024,-188 1024,-256"/>
<text text-anchor="start" x="873" y="-237.6" font-family="Times,serif" font-size="18.00">port_id: 74</text>
<text text-anchor="start" x="873" y="-217.6" font-family="Times,serif" font-size="18.00">name: input_FL</text>
<text text-anchor="start" x="873" y="-197.6" font-family="Times,serif" font-size="18.00">direction: input</text>
</g>
<!-- link_78&#45;&gt;port_74 -->
<g id="edge4" class="edge">
<title>link_78&#45;&gt;port_74</title>
<path fill="none" stroke="black" d="M659.78,-222C659.78,-222 854.69,-222 854.69,-222"/>
<polygon fill="black" stroke="black" points="854.69,-225.5 864.69,-222 854.69,-218.5 854.69,-225.5"/>
</g>
<!-- port_55 -->
<g id="node5" class="node">
<title>port_55</title>
<polygon fill="lightcoral" stroke="black" points="312,-256 131,-256 131,-188 312,-188 312,-256"/>
<text text-anchor="start" x="139" y="-237.6" font-family="Times,serif" font-size="18.00">port_id: 55</text>
<text text-anchor="start" x="139" y="-217.6" font-family="Times,serif" font-size="18.00">name: capture_FL</text>
<text text-anchor="start" x="139" y="-197.6" font-family="Times,serif" font-size="18.00">direction: output</text>
</g>
<!-- port_55&#45;&gt;link_78 -->
<g id="edge3" class="edge">
<title>port_55&#45;&gt;link_78</title>
<path fill="none" stroke="black" d="M312.2,-222C312.2,-222 460.49,-222 460.49,-222"/>
<polygon fill="black" stroke="black" points="460.49,-225.5 470.49,-222 460.49,-218.5 460.49,-225.5"/>
</g>
<!-- link_73 -->
<g id="node7" class="node">
<title>link_73</title>
<polygon fill="lightblue" stroke="black" points="659.5,-805 470.5,-805 470.5,-677 659.5,-677 659.5,-805"/>
<text text-anchor="start" x="478.5" y="-786.6" font-family="Times,serif" font-size="18.00">link_id: 73</text>
<text text-anchor="start" x="478.5" y="-766.6" font-family="Times,serif" font-size="18.00">output_node_id: 68</text>
<text text-anchor="start" x="478.5" y="-746.6" font-family="Times,serif" font-size="18.00">input_node_id: 62</text>
<text text-anchor="start" x="478.5" y="-726.6" font-family="Times,serif" font-size="18.00">output_port_id: 71</text>
<text text-anchor="start" x="478.5" y="-706.6" font-family="Times,serif" font-size="18.00">input_port_id: 65</text>
<text text-anchor="start" x="478.5" y="-686.6" font-family="Times,serif" font-size="18.00">state: active</text>
</g>
<!-- port_65 -->
<g id="node9" class="node">
<title>port_65</title>
<polygon fill="#8470ff" stroke="black" points="1041.5,-760 847.5,-760 847.5,-692 1041.5,-692 1041.5,-760"/>
<text text-anchor="start" x="855.5" y="-741.6" font-family="Times,serif" font-size="18.00">port_id: 65</text>
<text text-anchor="start" x="855.5" y="-721.6" font-family="Times,serif" font-size="18.00">name: playback_FR</text>
<text text-anchor="start" x="855.5" y="-701.6" font-family="Times,serif" font-size="18.00">direction: input</text>
</g>
<!-- link_73&#45;&gt;port_65 -->
<g id="edge6" class="edge">
<title>link_73&#45;&gt;port_65</title>
<path fill="none" stroke="black" d="M659.78,-726C659.78,-726 837.29,-726 837.29,-726"/>
<polygon fill="black" stroke="black" points="837.29,-729.5 847.29,-726 837.29,-722.5 837.29,-729.5"/>
</g>
<!-- port_71 -->
<g id="node8" class="node">
<title>port_71</title>
<polygon fill="lightcoral" stroke="black" points="308,-745 135,-745 135,-677 308,-677 308,-745"/>
<text text-anchor="start" x="143" y="-726.6" font-family="Times,serif" font-size="18.00">port_id: 71</text>
<text text-anchor="start" x="143" y="-706.6" font-family="Times,serif" font-size="18.00">name: output_FR</text>
<text text-anchor="start" x="143" y="-686.6" font-family="Times,serif" font-size="18.00">direction: output</text>
</g>
<!-- port_71&#45;&gt;link_73 -->
<g id="edge5" class="edge">
<title>port_71&#45;&gt;link_73</title>
<path fill="none" stroke="black" d="M308.18,-711C308.18,-711 460.5,-711 460.5,-711"/>
<polygon fill="black" stroke="black" points="460.5,-714.5 470.5,-711 460.5,-707.5 460.5,-714.5"/>
</g>
<!-- link_72 -->
<g id="node10" class="node">
<title>link_72</title>
<polygon fill="lightblue" stroke="black" points="659.5,-659 470.5,-659 470.5,-531 659.5,-531 659.5,-659"/>
<text text-anchor="start" x="478.5" y="-640.6" font-family="Times,serif" font-size="18.00">link_id: 72</text>
<text text-anchor="start" x="478.5" y="-620.6" font-family="Times,serif" font-size="18.00">output_node_id: 68</text>
<text text-anchor="start" x="478.5" y="-600.6" font-family="Times,serif" font-size="18.00">input_node_id: 62</text>
<text text-anchor="start" x="478.5" y="-580.6" font-family="Times,serif" font-size="18.00">output_port_id: 70</text>
<text text-anchor="start" x="478.5" y="-560.6" font-family="Times,serif" font-size="18.00">input_port_id: 63</text>
<text text-anchor="start" x="478.5" y="-540.6" font-family="Times,serif" font-size="18.00">state: active</text>
</g>
<!-- port_63 -->
<g id="node12" class="node">
<title>port_63</title>
<polygon fill="#8470ff" stroke="black" points="1041,-674 848,-674 848,-606 1041,-606 1041,-674"/>
<text text-anchor="start" x="856" y="-655.6" font-family="Times,serif" font-size="18.00">port_id: 63</text>
<text text-anchor="start" x="856" y="-635.6" font-family="Times,serif" font-size="18.00">name: playback_FL</text>
<text text-anchor="start" x="856" y="-615.6" font-family="Times,serif" font-size="18.00">direction: input</text>
</g>
<!-- link_72&#45;&gt;port_63 -->
<g id="edge8" class="edge">
<title>link_72&#45;&gt;port_63</title>
<path fill="none" stroke="black" d="M659.78,-632.5C659.78,-632.5 837.96,-632.5 837.96,-632.5"/>
<polygon fill="black" stroke="black" points="837.96,-636 847.96,-632.5 837.96,-629 837.96,-636"/>
</g>
<!-- port_70 -->
<g id="node11" class="node">
<title>port_70</title>
<polygon fill="lightcoral" stroke="black" points="307,-659 136,-659 136,-591 307,-591 307,-659"/>
<text text-anchor="start" x="144" y="-640.6" font-family="Times,serif" font-size="18.00">port_id: 70</text>
<text text-anchor="start" x="144" y="-620.6" font-family="Times,serif" font-size="18.00">name: output_FL</text>
<text text-anchor="start" x="144" y="-600.6" font-family="Times,serif" font-size="18.00">direction: output</text>
</g>
<!-- port_70&#45;&gt;link_72 -->
<g id="edge7" class="edge">
<title>port_70&#45;&gt;link_72</title>
<path fill="none" stroke="black" d="M307.29,-625C307.29,-625 460.34,-625 460.34,-625"/>
<polygon fill="black" stroke="black" points="460.34,-628.5 470.34,-625 460.34,-621.5 460.34,-628.5"/>
</g>
<!-- port_77 -->
<g id="node13" class="node">
<title>port_77</title>
<polygon fill="lightcoral" stroke="black" points="1037,-170 852,-170 852,-102 1037,-102 1037,-170"/>
<text text-anchor="start" x="860" y="-151.6" font-family="Times,serif" font-size="18.00">port_id: 77</text>
<text text-anchor="start" x="860" y="-131.6" font-family="Times,serif" font-size="18.00">name: monitor_FR</text>
<text text-anchor="start" x="860" y="-111.6" font-family="Times,serif" font-size="18.00">direction: output</text>
</g>
<!-- port_75 -->
<g id="node14" class="node">
<title>port_75</title>
<polygon fill="lightcoral" stroke="black" points="1036,-84 853,-84 853,-16 1036,-16 1036,-84"/>
<text text-anchor="start" x="861" y="-65.6" font-family="Times,serif" font-size="18.00">port_id: 75</text>
<text text-anchor="start" x="861" y="-45.6" font-family="Times,serif" font-size="18.00">name: monitor_FL</text>
<text text-anchor="start" x="861" y="-25.6" font-family="Times,serif" font-size="18.00">direction: output</text>
</g>
<!-- port_66 -->
<g id="node15" class="node">
<title>port_66</title>
<polygon fill="lightcoral" stroke="black" points="1037,-588 852,-588 852,-520 1037,-520 1037,-588"/>
<text text-anchor="start" x="860" y="-569.6" font-family="Times,serif" font-size="18.00">port_id: 66</text>
<text text-anchor="start" x="860" y="-549.6" font-family="Times,serif" font-size="18.00">name: monitor_FR</text>
<text text-anchor="start" x="860" y="-529.6" font-family="Times,serif" font-size="18.00">direction: output</text>
</g>
<!-- port_64 -->
<g id="node16" class="node">
<title>port_64</title>
<polygon fill="lightcoral" stroke="black" points="1036,-502 853,-502 853,-434 1036,-434 1036,-502"/>
<text text-anchor="start" x="861" y="-483.6" font-family="Times,serif" font-size="18.00">port_id: 64</text>
<text text-anchor="start" x="861" y="-463.6" font-family="Times,serif" font-size="18.00">name: monitor_FL</text>
<text text-anchor="start" x="861" y="-443.6" font-family="Times,serif" font-size="18.00">direction: output</text>
</g>
</g>
</svg>
