<?xml version="1.0" encoding="UTF-8" standalone="no"?>
<!DOCTYPE svg PUBLIC "-//W3C//DTD SVG 1.1//EN"
 "http://www.w3.org/Graphics/SVG/1.1/DTD/svg11.dtd">
<!-- Generated by graphviz version 2.49.3 (0)
 -->
<!-- Title: pipewire Pages: 1 -->
<svg width="1153pt" height="1688pt"
 viewBox="0.00 0.00 1153.00 1688.00" xmlns="http://www.w3.org/2000/svg" xmlns:xlink="http://www.w3.org/1999/xlink">
<g id="graph0" class="graph" transform="scale(1 1) rotate(0) translate(4 1684)">
<title>pipewire</title>
<polygon fill="white" stroke="transparent" points="-4,4 -4,-1684 1149,-1684 1149,4 -4,4"/>
<g id="clust1" class="cluster">
<title>cluster_node_99</title>
<polygon fill="palegreen" stroke="black" points="687,-8 687,-418 1145,-418 1145,-8 687,-8"/>
<text text-anchor="start" x="695" y="-399.6" font-family="Times,serif" font-size="18.00">node_id: 99</text>
<text text-anchor="start" x="695" y="-379.6" font-family="Times,serif" font-size="18.00">name: Pixel 3 &#45; Output &#45; Headset Audio Gateway</text>
<text text-anchor="start" x="695" y="-359.6" font-family="Times,serif" font-size="18.00">media_class: Stream/Input/Audio</text>
</g>
<g id="clust2" class="cluster">
<title>cluster_node_91</title>
<polygon fill="palegreen" stroke="black" points="0,-598 0,-836 443,-836 443,-598 0,-598"/>
<text text-anchor="start" x="8" y="-817.6" font-family="Times,serif" font-size="18.00">node_id: 91</text>
<text text-anchor="start" x="8" y="-797.6" font-family="Times,serif" font-size="18.00">name: Pixel 3 &#45; Input &#45; Headset Audio Gateway</text>
<text text-anchor="start" x="8" y="-777.6" font-family="Times,serif" font-size="18.00">media_class: Stream/Output/Audio</text>
</g>
<g id="clust3" class="cluster">
<title>cluster_node_56</title>
<polygon fill="palegreen" stroke="black" points="760.5,-844 760.5,-1254 1071.5,-1254 1071.5,-844 760.5,-844"/>
<text text-anchor="start" x="768.5" y="-1235.6" font-family="Times,serif" font-size="18.00">node_id: 56</text>
<text text-anchor="start" x="768.5" y="-1215.6" font-family="Times,serif" font-size="18.00">name: Speakers &#45; Output &#45; ALSA</text>
<text text-anchor="start" x="768.5" y="-1195.6" font-family="Times,serif" font-size="18.00">media_class: Audio/Sink</text>
</g>
<g id="clust4" class="cluster">
<title>cluster_node_55</title>
<polygon fill="palegreen" stroke="black" points="48.5,-1419 48.5,-1657 395.5,-1657 395.5,-1419 48.5,-1419"/>
<text text-anchor="start" x="56.5" y="-1638.6" font-family="Times,serif" font-size="18.00">node_id: 55</text>
<text text-anchor="start" x="56.5" y="-1618.6" font-family="Times,serif" font-size="18.00">name: Yeti Blue Nano &#45; Input &#45; ALSA</text>
<text text-anchor="start" x="56.5" y="-1598.6" font-family="Times,serif" font-size="18.00">media_class: Audio/Source</text>
</g>
<g id="clust5" class="cluster">
<title>cluster_node_36</title>
<polygon fill="palegreen" stroke="black" points="56,-1016 56,-1254 387,-1254 387,-1016 56,-1016"/>
<text text-anchor="start" x="64" y="-1235.6" font-family="Times,serif" font-size="18.00">node_id: 36</text>
<text text-anchor="start" x="64" y="-1215.6" font-family="Times,serif" font-size="18.00">name: echo&#45;cancel&#45;playback</text>
<text text-anchor="start" x="64" y="-1195.6" font-family="Times,serif" font-size="18.00">media_class: Stream/Output/Audio</text>
</g>
<g id="clust6" class="cluster">
<title>cluster_node_35</title>
<polygon fill="palegreen" stroke="black" points="797.5,-426 797.5,-836 1033.5,-836 1033.5,-426 797.5,-426"/>
<text text-anchor="start" x="805.5" y="-817.6" font-family="Times,serif" font-size="18.00">node_id: 35</text>
<text text-anchor="start" x="805.5" y="-797.6" font-family="Times,serif" font-size="18.00">name: echo&#45;cancel&#45;sink</text>
<text text-anchor="start" x="805.5" y="-777.6" font-family="Times,serif" font-size="18.00">media_class: Audio/Sink</text>
</g>
<g id="clust7" class="cluster">
<title>cluster_node_34</title>
<polygon fill="palegreen" stroke="black" points="93.5,-180 93.5,-418 350.5,-418 350.5,-180 93.5,-180"/>
<text text-anchor="start" x="101.5" y="-399.6" font-family="Times,serif" font-size="18.00">node_id: 34</text>
<text text-anchor="start" x="101.5" y="-379.6" font-family="Times,serif" font-size="18.00">name: echo&#45;cancel&#45;source</text>
<text text-anchor="start" x="101.5" y="-359.6" font-family="Times,serif" font-size="18.00">media_class: Audio/Source</text>
</g>
<g id="clust8" class="cluster">
<title>cluster_node_33</title>
<polygon fill="palegreen" stroke="black" points="758,-1262 758,-1672 1073,-1672 1073,-1262 758,-1262"/>
<text text-anchor="start" x="766" y="-1653.6" font-family="Times,serif" font-size="18.00">node_id: 33</text>
<text text-anchor="start" x="766" y="-1633.6" font-family="Times,serif" font-size="18.00">name: echo&#45;cancel&#45;capture</text>
<text text-anchor="start" x="766" y="-1613.6" font-family="Times,serif" font-size="18.00">media_class: Stream/Input/Audio</text>
</g>
<!-- link_155 -->
<g id="node1" class="node">
<title>link_155</title>
<polygon fill="lightblue" stroke="black" points="659.5,-402 470.5,-402 470.5,-274 659.5,-274 659.5,-402"/>
<text text-anchor="start" x="478.5" y="-383.6" font-family="Times,serif" font-size="18.00">link_id: 155</text>
<text text-anchor="start" x="478.5" y="-363.6" font-family="Times,serif" font-size="18.00">output_node_id: 34</text>
<text text-anchor="start" x="478.5" y="-343.6" font-family="Times,serif" font-size="18.00">input_node_id: 99</text>
<text text-anchor="start" x="478.5" y="-323.6" font-family="Times,serif" font-size="18.00">output_port_id: 62</text>
<text text-anchor="start" x="478.5" y="-303.6" font-family="Times,serif" font-size="18.00">input_port_id: 93</text>
<text text-anchor="start" x="478.5" y="-283.6" font-family="Times,serif" font-size="18.00">state: active</text>
</g>
<!-- port_93 -->
<g id="node3" class="node">
<title>port_93</title>
<polygon fill="#8470ff" stroke="black" points="996,-342 835,-342 835,-274 996,-274 996,-342"/>
<text text-anchor="start" x="843" y="-323.6" font-family="Times,serif" font-size="18.00">port_id: 93</text>
<text text-anchor="start" x="843" y="-303.6" font-family="Times,serif" font-size="18.00">name: input_FR</text>
<text text-anchor="start" x="843" y="-283.6" font-family="Times,serif" font-size="18.00">direction: input</text>
</g>
<!-- link_155&#45;&gt;port_93 -->
<g id="edge2" class="edge">
<title>link_155&#45;&gt;port_93</title>
<path fill="none" stroke="black" d="M659.85,-308C659.85,-308 824.84,-308 824.84,-308"/>
<polygon fill="black" stroke="black" points="824.84,-311.5 834.84,-308 824.84,-304.5 824.84,-311.5"/>
</g>
<!-- port_62 -->
<g id="node2" class="node">
<title>port_62</title>
<polygon fill="lightcoral" stroke="black" points="312.5,-342 130.5,-342 130.5,-274 312.5,-274 312.5,-342"/>
<text text-anchor="start" x="138.5" y="-323.6" font-family="Times,serif" font-size="18.00">port_id: 62</text>
<text text-anchor="start" x="138.5" y="-303.6" font-family="Times,serif" font-size="18.00">name: capture_FR</text>
<text text-anchor="start" x="138.5" y="-283.6" font-family="Times,serif" font-size="18.00">direction: output</text>
</g>
<!-- port_62&#45;&gt;link_155 -->
<g id="edge1" class="edge">
<title>port_62&#45;&gt;link_155</title>
<path fill="none" stroke="black" d="M312.65,-308C312.65,-308 460.43,-308 460.43,-308"/>
<polygon fill="black" stroke="black" points="460.43,-311.5 470.43,-308 460.43,-304.5 460.43,-311.5"/>
</g>
<!-- link_92 -->
<g id="node4" class="node">
<title>link_92</title>
<polygon fill="lightblue" stroke="black" points="659.5,-256 470.5,-256 470.5,-128 659.5,-128 659.5,-256"/>
<text text-anchor="start" x="478.5" y="-237.6" font-family="Times,serif" font-size="18.00">link_id: 92</text>
<text text-anchor="start" x="478.5" y="-217.6" font-family="Times,serif" font-size="18.00">output_node_id: 34</text>
<text text-anchor="start" x="478.5" y="-197.6" font-family="Times,serif" font-size="18.00">input_node_id: 99</text>
<text text-anchor="start" x="478.5" y="-177.6" font-family="Times,serif" font-size="18.00">output_port_id: 61</text>
<text text-anchor="start" x="478.5" y="-157.6" font-family="Times,serif" font-size="18.00">input_port_id: 100</text>
<text text-anchor="start" x="478.5" y="-137.6" font-family="Times,serif" font-size="18.00">state: active</text>
</g>
<!-- port_100 -->
<g id="node6" class="node">
<title>port_100</title>
<polygon fill="#8470ff" stroke="black" points="995,-256 836,-256 836,-188 995,-188 995,-256"/>
<text text-anchor="start" x="844" y="-237.6" font-family="Times,serif" font-size="18.00">port_id: 100</text>
<text text-anchor="start" x="844" y="-217.6" font-family="Times,serif" font-size="18.00">name: input_FL</text>
<text text-anchor="start" x="844" y="-197.6" font-family="Times,serif" font-size="18.00">direction: input</text>
</g>
<!-- link_92&#45;&gt;port_100 -->
<g id="edge4" class="edge">
<title>link_92&#45;&gt;port_100</title>
<path fill="none" stroke="black" d="M659.85,-222C659.85,-222 825.99,-222 825.99,-222"/>
<polygon fill="black" stroke="black" points="825.99,-225.5 835.99,-222 825.99,-218.5 825.99,-225.5"/>
</g>
<!-- port_61 -->
<g id="node5" class="node">
<title>port_61</title>
<polygon fill="lightcoral" stroke="black" points="312,-256 131,-256 131,-188 312,-188 312,-256"/>
<text text-anchor="start" x="139" y="-237.6" font-family="Times,serif" font-size="18.00">port_id: 61</text>
<text text-anchor="start" x="139" y="-217.6" font-family="Times,serif" font-size="18.00">name: capture_FL</text>
<text text-anchor="start" x="139" y="-197.6" font-family="Times,serif" font-size="18.00">direction: output</text>
</g>
<!-- port_61&#45;&gt;link_92 -->
<g id="edge3" class="edge">
<title>port_61&#45;&gt;link_92</title>
<path fill="none" stroke="black" d="M312.2,-222C312.2,-222 460.49,-222 460.49,-222"/>
<polygon fill="black" stroke="black" points="460.49,-225.5 470.49,-222 460.49,-218.5 460.49,-225.5"/>
</g>
<!-- link_96 -->
<g id="node7" class="node">
<title>link_96</title>
<polygon fill="lightblue" stroke="black" points="659.5,-820 470.5,-820 470.5,-692 659.5,-692 659.5,-820"/>
<text text-anchor="start" x="478.5" y="-801.6" font-family="Times,serif" font-size="18.00">link_id: 96</text>
<text text-anchor="start" x="478.5" y="-781.6" font-family="Times,serif" font-size="18.00">output_node_id: 91</text>
<text text-anchor="start" x="478.5" y="-761.6" font-family="Times,serif" font-size="18.00">input_node_id: 35</text>
<text text-anchor="start" x="478.5" y="-741.6" font-family="Times,serif" font-size="18.00">output_port_id: 98</text>
<text text-anchor="start" x="478.5" y="-721.6" font-family="Times,serif" font-size="18.00">input_port_id: 65</text>
<text text-anchor="start" x="478.5" y="-701.6" font-family="Times,serif" font-size="18.00">state: active</text>
</g>
<!-- port_65 -->
<g id="node9" class="node">
<title>port_65</title>
<polygon fill="#8470ff" stroke="black" points="1012.5,-760 818.5,-760 818.5,-692 1012.5,-692 1012.5,-760"/>
<text text-anchor="start" x="826.5" y="-741.6" font-family="Times,serif" font-size="18.00">port_id: 65</text>
<text text-anchor="start" x="826.5" y="-721.6" font-family="Times,serif" font-size="18.00">name: playback_FR</text>
<text text-anchor="start" x="826.5" y="-701.6" font-family="Times,serif" font-size="18.00">direction: input</text>
</g>
<!-- link_96&#45;&gt;port_65 -->
<g id="edge6" class="edge">
<title>link_96&#45;&gt;port_65</title>
<path fill="none" stroke="black" d="M659.85,-726C659.85,-726 808.44,-726 808.44,-726"/>
<polygon fill="black" stroke="black" points="808.44,-729.5 818.44,-726 808.44,-722.5 808.44,-729.5"/>
</g>
<!-- port_98 -->
<g id="node8" class="node">
<title>port_98</title>
<polygon fill="lightcoral" stroke="black" points="308,-760 135,-760 135,-692 308,-692 308,-760"/>
<text text-anchor="start" x="143" y="-741.6" font-family="Times,serif" font-size="18.00">port_id: 98</text>
<text text-anchor="start" x="143" y="-721.6" font-family="Times,serif" font-size="18.00">name: output_FR</text>
<text text-anchor="start" x="143" y="-701.6" font-family="Times,serif" font-size="18.00">direction: output</text>
</g>
<!-- port_98&#45;&gt;link_96 -->
<g id="edge5" class="edge">
<title>port_98&#45;&gt;link_96</title>
<path fill="none" stroke="black" d="M308.18,-726C308.18,-726 460.5,-726 460.5,-726"/>
<polygon fill="black" stroke="black" points="460.5,-729.5 470.5,-726 460.5,-722.5 460.5,-729.5"/>
</g>
<!-- link_101 -->
<g id="node10" class="node">
<title>link_101</title>
<polygon fill="lightblue" stroke="black" points="659.5,-674 470.5,-674 470.5,-546 659.5,-546 659.5,-674"/>
<text text-anchor="start" x="478.5" y="-655.6" font-family="Times,serif" font-size="18.00">link_id: 101</text>
<text text-anchor="start" x="478.5" y="-635.6" font-family="Times,serif" font-size="18.00">output_node_id: 91</text>
<text text-anchor="start" x="478.5" y="-615.6" font-family="Times,serif" font-size="18.00">input_node_id: 35</text>
<text text-anchor="start" x="478.5" y="-595.6" font-family="Times,serif" font-size="18.00">output_port_id: 97</text>
<text text-anchor="start" x="478.5" y="-575.6" font-family="Times,serif" font-size="18.00">input_port_id: 63</text>
<text text-anchor="start" x="478.5" y="-555.6" font-family="Times,serif" font-size="18.00">state: active</text>
</g>
<!-- port_63 -->
<g id="node12" class="node">
<title>port_63</title>
<polygon fill="#8470ff" stroke="black" points="1012,-674 819,-674 819,-606 1012,-606 1012,-674"/>
<text text-anchor="start" x="827" y="-655.6" font-family="Times,serif" font-size="18.00">port_id: 63</text>
<text text-anchor="start" x="827" y="-635.6" font-family="Times,serif" font-size="18.00">name: playback_FL</text>
<text text-anchor="start" x="827" y="-615.6" font-family="Times,serif" font-size="18.00">direction: input</text>
</g>
<!-- link_101&#45;&gt;port_63 -->
<g id="edge8" class="edge">
<title>link_101&#45;&gt;port_63</title>
<path fill="none" stroke="black" d="M659.85,-640C659.85,-640 808.74,-640 808.74,-640"/>
<polygon fill="black" stroke="black" points="808.74,-643.5 818.74,-640 808.74,-636.5 808.74,-643.5"/>
</g>
<!-- port_97 -->
<g id="node11" class="node">
<title>port_97</title>
<polygon fill="lightcoral" stroke="black" points="307,-674 136,-674 136,-606 307,-606 307,-674"/>
<text text-anchor="start" x="144" y="-655.6" font-family="Times,serif" font-size="18.00">port_id: 97</text>
<text text-anchor="start" x="144" y="-635.6" font-family="Times,serif" font-size="18.00">name: output_FL</text>
<text text-anchor="start" x="144" y="-615.6" font-family="Times,serif" font-size="18.00">direction: output</text>
</g>
<!-- port_97&#45;&gt;link_101 -->
<g id="edge7" class="edge">
<title>port_97&#45;&gt;link_101</title>
<path fill="none" stroke="black" d="M307.29,-640C307.29,-640 460.34,-640 460.34,-640"/>
<polygon fill="black" stroke="black" points="460.34,-643.5 470.34,-640 460.34,-636.5 460.34,-643.5"/>
</g>
<!-- port_94 -->
<g id="node13" class="node">
<title>port_94</title>
<polygon fill="lightcoral" stroke="black" points="1008,-170 823,-170 823,-102 1008,-102 1008,-170"/>
<text text-anchor="start" x="831" y="-151.6" font-family="Times,serif" font-size="18.00">port_id: 94</text>
<text text-anchor="start" x="831" y="-131.6" font-family="Times,serif" font-size="18.00">name: monitor_FR</text>
<text text-anchor="start" x="831" y="-111.6" font-family="Times,serif" font-size="18.00">direction: output</text>
</g>
<!-- port_90 -->
<g id="node14" class="node">
<title>port_90</title>
<polygon fill="lightcoral" stroke="black" points="1007,-84 824,-84 824,-16 1007,-16 1007,-84"/>
<text text-anchor="start" x="832" y="-65.6" font-family="Times,serif" font-size="18.00">port_id: 90</text>
<text text-anchor="start" x="832" y="-45.6" font-family="Times,serif" font-size="18.00">name: monitor_FL</text>
<text text-anchor="start" x="832" y="-25.6" font-family="Times,serif" font-size="18.00">direction: output</text>
</g>
<!-- link_102 -->
<g id="node15" class="node">
<title>link_102</title>
<polygon fill="lightblue" stroke="black" points="659.5,-1238 470.5,-1238 470.5,-1110 659.5,-1110 659.5,-1238"/>
<text text-anchor="start" x="478.5" y="-1219.6" font-family="Times,serif" font-size="18.00">link_id: 102</text>
<text text-anchor="start" x="478.5" y="-1199.6" font-family="Times,serif" font-size="18.00">output_node_id: 36</text>
<text text-anchor="start" x="478.5" y="-1179.6" font-family="Times,serif" font-size="18.00">input_node_id: 56</text>
<text text-anchor="start" x="478.5" y="-1159.6" font-family="Times,serif" font-size="18.00">output_port_id: 68</text>
<text text-anchor="start" x="478.5" y="-1139.6" font-family="Times,serif" font-size="18.00">input_port_id: 77</text>
<text text-anchor="start" x="478.5" y="-1119.6" font-family="Times,serif" font-size="18.00">state: active</text>
</g>
<!-- port_77 -->
<g id="node17" class="node">
<title>port_77</title>
<polygon fill="#8470ff" stroke="black" points="1012.5,-1178 818.5,-1178 818.5,-1110 1012.5,-1110 1012.5,-1178"/>
<text text-anchor="start" x="826.5" y="-1159.6" font-family="Times,serif" font-size="18.00">port_id: 77</text>
<text text-anchor="start" x="826.5" y="-1139.6" font-family="Times,serif" font-size="18.00">name: playback_FR</text>
<text text-anchor="start" x="826.5" y="-1119.6" font-family="Times,serif" font-size="18.00">direction: input</text>
</g>
<!-- link_102&#45;&gt;port_77 -->
<g id="edge10" class="edge">
<title>link_102&#45;&gt;port_77</title>
<path fill="none" stroke="black" d="M659.85,-1144C659.85,-1144 808.44,-1144 808.44,-1144"/>
<polygon fill="black" stroke="black" points="808.44,-1147.5 818.44,-1144 808.44,-1140.5 808.44,-1147.5"/>
</g>
<!-- port_68 -->
<g id="node16" class="node">
<title>port_68</title>
<polygon fill="lightcoral" stroke="black" points="308,-1178 135,-1178 135,-1110 308,-1110 308,-1178"/>
<text text-anchor="start" x="143" y="-1159.6" font-family="Times,serif" font-size="18.00">port_id: 68</text>
<text text-anchor="start" x="143" y="-1139.6" font-family="Times,serif" font-size="18.00">name: output_FR</text>
<text text-anchor="start" x="143" y="-1119.6" font-family="Times,serif" font-size="18.00">direction: output</text>
</g>
<!-- port_68&#45;&gt;link_102 -->
<g id="edge9" class="edge">
<title>port_68&#45;&gt;link_102</title>
<path fill="none" stroke="black" d="M308.18,-1144C308.18,-1144 460.5,-1144 460.5,-1144"/>
<polygon fill="black" stroke="black" points="460.5,-1147.5 470.5,-1144 460.5,-1140.5 460.5,-1147.5"/>
</g>
<!-- link_87 -->
<g id="node18" class="node">
<title>link_87</title>
<polygon fill="lightblue" stroke="black" points="659.5,-1092 470.5,-1092 470.5,-964 659.5,-964 659.5,-1092"/>
<text text-anchor="start" x="478.5" y="-1073.6" font-family="Times,serif" font-size="18.00">link_id: 87</text>
<text text-anchor="start" x="478.5" y="-1053.6" font-family="Times,serif" font-size="18.00">output_node_id: 36</text>
<text text-anchor="start" x="478.5" y="-1033.6" font-family="Times,serif" font-size="18.00">input_node_id: 56</text>
<text text-anchor="start" x="478.5" y="-1013.6" font-family="Times,serif" font-size="18.00">output_port_id: 67</text>
<text text-anchor="start" x="478.5" y="-993.6" font-family="Times,serif" font-size="18.00">input_port_id: 75</text>
<text text-anchor="start" x="478.5" y="-973.6" font-family="Times,serif" font-size="18.00">state: active</text>
</g>
<!-- port_75 -->
<g id="node20" class="node">
<title>port_75</title>
<polygon fill="#8470ff" stroke="black" points="1012,-1092 819,-1092 819,-1024 1012,-1024 1012,-1092"/>
<text text-anchor="start" x="827" y="-1073.6" font-family="Times,serif" font-size="18.00">port_id: 75</text>
<text text-anchor="start" x="827" y="-1053.6" font-family="Times,serif" font-size="18.00">name: playback_FL</text>
<text text-anchor="start" x="827" y="-1033.6" font-family="Times,serif" font-size="18.00">direction: input</text>
</g>
<!-- link_87&#45;&gt;port_75 -->
<g id="edge12" class="edge">
<title>link_87&#45;&gt;port_75</title>
<path fill="none" stroke="black" d="M659.85,-1058C659.85,-1058 808.74,-1058 808.74,-1058"/>
<polygon fill="black" stroke="black" points="808.74,-1061.5 818.74,-1058 808.74,-1054.5 808.74,-1061.5"/>
</g>
<!-- port_67 -->
<g id="node19" class="node">
<title>port_67</title>
<polygon fill="lightcoral" stroke="black" points="307,-1092 136,-1092 136,-1024 307,-1024 307,-1092"/>
<text text-anchor="start" x="144" y="-1073.6" font-family="Times,serif" font-size="18.00">port_id: 67</text>
<text text-anchor="start" x="144" y="-1053.6" font-family="Times,serif" font-size="18.00">name: output_FL</text>
<text text-anchor="start" x="144" y="-1033.6" font-family="Times,serif" font-size="18.00">direction: output</text>
</g>
<!-- port_67&#45;&gt;link_87 -->
<g id="edge11" class="edge">
<title>port_67&#45;&gt;link_87</title>
<path fill="none" stroke="black" d="M307.29,-1058C307.29,-1058 460.34,-1058 460.34,-1058"/>
<polygon fill="black" stroke="black" points="460.34,-1061.5 470.34,-1058 460.34,-1054.5 460.34,-1061.5"/>
</g>
<!-- link_80 -->
<g id="node21" class="node">
<title>link_80</title>
<polygon fill="lightblue" stroke="black" points="659.5,-1641 470.5,-1641 470.5,-1513 659.5,-1513 659.5,-1641"/>
<text text-anchor="start" x="478.5" y="-1622.6" font-family="Times,serif" font-size="18.00">link_id: 80</text>
<text text-anchor="start" x="478.5" y="-1602.6" font-family="Times,serif" font-size="18.00">output_node_id: 55</text>
<text text-anchor="start" x="478.5" y="-1582.6" font-family="Times,serif" font-size="18.00">input_node_id: 33</text>
<text text-anchor="start" x="478.5" y="-1562.6" font-family="Times,serif" font-size="18.00">output_port_id: 74</text>
<text text-anchor="start" x="478.5" y="-1542.6" font-family="Times,serif" font-size="18.00">input_port_id: 58</text>
<text text-anchor="start" x="478.5" y="-1522.6" font-family="Times,serif" font-size="18.00">state: active</text>
</g>
<!-- port_58 -->
<g id="node23" class="node">
<title>port_58</title>
<polygon fill="#8470ff" stroke="black" points="996,-1596 835,-1596 835,-1528 996,-1528 996,-1596"/>
<text text-anchor="start" x="843" y="-1577.6" font-family="Times,serif" font-size="18.00">port_id: 58</text>
<text text-anchor="start" x="843" y="-1557.6" font-family="Times,serif" font-size="18.00">name: input_FR</text>
<text text-anchor="start" x="843" y="-1537.6" font-family="Times,serif" font-size="18.00">direction: input</text>
</g>
<!-- link_80&#45;&gt;port_58 -->
<g id="edge14" class="edge">
<title>link_80&#45;&gt;port_58</title>
<path fill="none" stroke="black" d="M659.85,-1562C659.85,-1562 824.84,-1562 824.84,-1562"/>
<polygon fill="black" stroke="black" points="824.84,-1565.5 834.84,-1562 824.84,-1558.5 824.84,-1565.5"/>
</g>
<!-- port_74 -->
<g id="node22" class="node">
<title>port_74</title>
<polygon fill="lightcoral" stroke="black" points="312.5,-1581 130.5,-1581 130.5,-1513 312.5,-1513 312.5,-1581"/>
<text text-anchor="start" x="138.5" y="-1562.6" font-family="Times,serif" font-size="18.00">port_id: 74</text>
<text text-anchor="start" x="138.5" y="-1542.6" font-family="Times,serif" font-size="18.00">name: capture_FR</text>
<text text-anchor="start" x="138.5" y="-1522.6" font-family="Times,serif" font-size="18.00">direction: output</text>
</g>
<!-- port_74&#45;&gt;link_80 -->
<g id="edge13" class="edge">
<title>port_74&#45;&gt;link_80</title>
<path fill="none" stroke="black" d="M312.65,-1547C312.65,-1547 460.43,-1547 460.43,-1547"/>
<polygon fill="black" stroke="black" points="460.43,-1550.5 470.43,-1547 460.43,-1543.5 460.43,-1550.5"/>
</g>
<!-- link_79 -->
<g id="node24" class="node">
<title>link_79</title>
<polygon fill="lightblue" stroke="black" points="659.5,-1495 470.5,-1495 470.5,-1367 659.5,-1367 659.5,-1495"/>
<text text-anchor="start" x="478.5" y="-1476.6" font-family="Times,serif" font-size="18.00">link_id: 79</text>
<text text-anchor="start" x="478.5" y="-1456.6" font-family="Times,serif" font-size="18.00">output_node_id: 55</text>
<text text-anchor="start" x="478.5" y="-1436.6" font-family="Times,serif" font-size="18.00">input_node_id: 33</text>
<text text-anchor="start" x="478.5" y="-1416.6" font-family="Times,serif" font-size="18.00">output_port_id: 73</text>
<text text-anchor="start" x="478.5" y="-1396.6" font-family="Times,serif" font-size="18.00">input_port_id: 60</text>
<text text-anchor="start" x="478.5" y="-1376.6" font-family="Times,serif" font-size="18.00">state: active</text>
</g>
<!-- port_60 -->
<g id="node26" class="node">
<title>port_60</title>
<polygon fill="#8470ff" stroke="black" points="995,-1510 836,-1510 836,-1442 995,-1442 995,-1510"/>
<text text-anchor="start" x="844" y="-1491.6" font-family="Times,serif" font-size="18.00">port_id: 60</text>
<text text-anchor="start" x="844" y="-1471.6" font-family="Times,serif" font-size="18.00">name: input_FL</text>
<text text-anchor="start" x="844" y="-1451.6" font-family="Times,serif" font-size="18.00">direction: input</text>
</g>
<!-- link_79&#45;&gt;port_60 -->
<g id="edge16" class="edge">
<title>link_79&#45;&gt;port_60</title>
<path fill="none" stroke="black" d="M659.85,-1468.5C659.85,-1468.5 825.99,-1468.5 825.99,-1468.5"/>
<polygon fill="black" stroke="black" points="825.99,-1472 835.99,-1468.5 825.99,-1465 825.99,-1472"/>
</g>
<!-- port_73 -->
<g id="node25" class="node">
<title>port_73</title>
<polygon fill="lightcoral" stroke="black" points="312,-1495 131,-1495 131,-1427 312,-1427 312,-1495"/>
<text text-anchor="start" x="139" y="-1476.6" font-family="Times,serif" font-size="18.00">port_id: 73</text>
<text text-anchor="start" x="139" y="-1456.6" font-family="Times,serif" font-size="18.00">name: capture_FL</text>
<text text-anchor="start" x="139" y="-1436.6" font-family="Times,serif" font-size="18.00">direction: output</text>
</g>
<!-- port_73&#45;&gt;link_79 -->
<g id="edge15" class="edge">
<title>port_73&#45;&gt;link_79</title>
<path fill="none" stroke="black" d="M312.2,-1461C312.2,-1461 460.49,-1461 460.49,-1461"/>
<polygon fill="black" stroke="black" points="460.49,-1464.5 470.49,-1461 460.49,-1457.5 460.49,-1464.5"/>
</g>
<!-- port_78 -->
<g id="node27" class="node">
<title>port_78</title>
<polygon fill="lightcoral" stroke="black" points="1008,-1006 823,-1006 823,-938 1008,-938 1008,-1006"/>
<text text-anchor="start" x="831" y="-987.6" font-family="Times,serif" font-size="18.00">port_id: 78</text>
<text text-anchor="start" x="831" y="-967.6" font-family="Times,serif" font-size="18.00">name: monitor_FR</text>
<text text-anchor="start" x="831" y="-947.6" font-family="Times,serif" font-size="18.00">direction: output</text>
</g>
<!-- port_76 -->
<g id="node28" class="node">
<title>port_76</title>
<polygon fill="lightcoral" stroke="black" points="1007,-920 824,-920 824,-852 1007,-852 1007,-920"/>
<text text-anchor="start" x="832" y="-901.6" font-family="Times,serif" font-size="18.00">port_id: 76</text>
<text text-anchor="start" x="832" y="-881.6" font-family="Times,serif" font-size="18.00">name: monitor_FL</text>
<text text-anchor="start" x="832" y="-861.6" font-family="Times,serif" font-size="18.00">direction: output</text>
</g>
<!-- port_66 -->
<g id="node29" class="node">
<title>port_66</title>
<polygon fill="lightcoral" stroke="black" points="1008,-588 823,-588 823,-520 1008,-520 1008,-588"/>
<text text-anchor="start" x="831" y="-569.6" font-family="Times,serif" font-size="18.00">port_id: 66</text>
<text text-anchor="start" x="831" y="-549.6" font-family="Times,serif" font-size="18.00">name: monitor_FR</text>
<text text-anchor="start" x="831" y="-529.6" font-family="Times,serif" font-size="18.00">direction: output</text>
</g>
<!-- port_64 -->
<g id="node30" class="node">
<title>port_64</title>
<polygon fill="lightcoral" stroke="black" points="1007,-502 824,-502 824,-434 1007,-434 1007,-502"/>
<text text-anchor="start" x="832" y="-483.6" font-family="Times,serif" font-size="18.00">port_id: 64</text>
<text text-anchor="start" x="832" y="-463.6" font-family="Times,serif" font-size="18.00">name: monitor_FL</text>
<text text-anchor="start" x="832" y="-443.6" font-family="Times,serif" font-size="18.00">direction: output</text>
</g>
<!-- port_57 -->
<g id="node31" class="node">
<title>port_57</title>
<polygon fill="lightcoral" stroke="black" points="1008,-1424 823,-1424 823,-1356 1008,-1356 1008,-1424"/>
<text text-anchor="start" x="831" y="-1405.6" font-family="Times,serif" font-size="18.00">port_id: 57</text>
<text text-anchor="start" x="831" y="-1385.6" font-family="Times,serif" font-size="18.00">name: monitor_FR</text>
<text text-anchor="start" x="831" y="-1365.6" font-family="Times,serif" font-size="18.00">direction: output</text>
</g>
<!-- port_59 -->
<g id="node32" class="node">
<title>port_59</title>
<polygon fill="lightcoral" stroke="black" points="1007,-1338 824,-1338 824,-1270 1007,-1270 1007,-1338"/>
<text text-anchor="start" x="832" y="-1319.6" font-family="Times,serif" font-size="18.00">port_id: 59</text>
<text text-anchor="start" x="832" y="-1299.6" font-family="Times,serif" font-size="18.00">name: monitor_FL</text>
<text text-anchor="start" x="832" y="-1279.6" font-family="Times,serif" font-size="18.00">direction: output</text>
</g>
</g>
</svg>
