<?xml version="1.0" encoding="UTF-8" standalone="no"?>
<!-- Created with Inkscape (http://www.inkscape.org/) -->

<svg
   xmlns:dc="http://purl.org/dc/elements/1.1/"
   xmlns:cc="http://creativecommons.org/ns#"
   xmlns:rdf="http://www.w3.org/1999/02/22-rdf-syntax-ns#"
   xmlns:svg="http://www.w3.org/2000/svg"
   xmlns="http://www.w3.org/2000/svg"
   xmlns:xlink="http://www.w3.org/1999/xlink"
   xmlns:sodipodi="http://sodipodi.sourceforge.net/DTD/sodipodi-0.dtd"
   xmlns:inkscape="http://www.inkscape.org/namespaces/inkscape"
   width="192.9836mm"
   height="157.35771mm"
   viewBox="0 0 683.80013 557.5667"
   id="svg2"
   version="1.1"
   inkscape:version="0.91 r13725"
   sodipodi:docname="diagram.svg">
  <defs
     id="defs4">
    <symbol
       id="symbol15823">
      <title
         id="title15825">Access Times</title>
      <path
         d="M 23.99,4 C 12.94,4 4,12.95 4,24 4,35.05 12.94,44 23.99,44 35.04,44 44,35.05 44,24 44,12.95 35.04,4 23.99,4 Z M 24,40 C 15.16,40 8,32.84 8,24 8,15.16 15.16,8 24,8 c 8.84,0 16,7.16 16,16 0,8.84 -7.16,16 -16,16 z"
         style="fill-opacity:0.9;stroke:none"
         id="path15827"
         inkscape:connector-curvature="0" />
      <path
         d="m 25,14 -3,0 0,12 10.49,6.3 L 34,29.84 25,24.5 Z"
         style="fill-opacity:0.9;stroke:none"
         id="path15829"
         inkscape:connector-curvature="0" />
    </symbol>
    <symbol
       id="symbol16323">
      <title
         id="title16325">Storage</title>
      <path
         d="m 4,40 40,0 0,-8 -40,0 0,8 z m 4,-6 4,0 0,4 -4,0 0,-4 z M 4,8 4,16 44,16 44,8 4,8 Z m 8,6 -4,0 0,-4 4,0 0,4 z m -8,14 40,0 0,-8 -40,0 0,8 z m 4,-6 4,0 0,4 -4,0 0,-4 z"
         style="stroke:none"
         id="path16327"
         inkscape:connector-curvature="0" />
    </symbol>
    <symbol
       id="cogs"
       class="Web-Application-Icons">
      <title
         id="title11379">cogs</title>
      <path
         transform="matrix(0.05,0,0,-0.05,0,76.8)"
         d="m 896,640 q 0,106 -75,181 -75,75 -181,75 -106,0 -181,-75 -75,-75 -75,-181 0,-106 75,-181 75,-75 181,-75 106,0 181,75 75,75 75,181 z m 768,-512 q 0,52 -38,90 -38,38 -90,38 -52,0 -90,-38 -38,-38 -38,-90 0,-53 37.5,-90.5 Q 1483,0 1536,0 1589,0 1626.5,37.5 1664,75 1664,128 Z m 0,1024 q 0,52 -38,90 -38,38 -90,38 -52,0 -90,-38 -38,-38 -38,-90 0,-53 37.5,-90.5 37.5,-37.5 90.5,-37.5 53,0 90.5,37.5 37.5,37.5 37.5,90.5 z m -384,-421 0,-185 q 0,-10 -7,-19.5 -7,-9.5 -16,-10.5 l -155,-24 q -11,-35 -32,-76 34,-48 90,-115 7,-10 7,-20 0,-12 -7,-19 -23,-30 -82.5,-89.5 Q 1018,113 999,113 q -11,0 -21,7 L 863,210 Q 826,191 786,179 775,71 763,24 756,0 733,0 L 547,0 Q 536,0 527,7.5 518,15 517,25 l -23,153 q -34,10 -75,31 L 301,120 q -7,-7 -20,-7 -11,0 -21,8 -144,133 -144,160 0,9 7,19 10,14 41,53 31,39 47,61 -23,44 -35,82 L 24,520 Q 14,521 7,529.5 0,538 0,549 l 0,185 q 0,10 7,19.5 7,9.5 16,10.5 l 155,24 q 11,35 32,76 -34,48 -90,115 -7,11 -7,20 0,12 7,20 22,30 82,89 60,59 79,59 11,0 21,-7 l 115,-90 q 34,18 77,32 11,108 23,154 7,24 30,24 l 186,0 q 11,0 20,-7.5 9,-7.5 10,-17.5 l 23,-153 q 34,-10 75,-31 l 118,89 q 8,7 20,7 11,0 21,-8 144,-133 144,-160 0,-9 -7,-19 -12,-16 -42,-54 -30,-38 -45,-60 23,-48 34,-82 l 152,-23 q 10,-2 17,-10.5 7,-8.5 7,-19.5 z m 640,-533 0,-140 q 0,-16 -149,-31 -12,-27 -30,-52 51,-113 51,-138 0,-4 -4,-7 -122,-71 -124,-71 -8,0 -46,47 -38,47 -52,68 -20,-2 -30,-2 -10,0 -30,2 -14,-21 -52,-68 -38,-47 -46,-47 -2,0 -124,71 -4,3 -4,7 0,25 51,138 -18,25 -30,52 -149,15 -149,31 l 0,140 q 0,16 149,31 13,29 30,52 -51,113 -51,138 0,4 4,7 4,2 35,20 31,18 59,34 28,16 30,16 8,0 46,-46.5 38,-46.5 52,-67.5 20,2 30,2 10,0 30,-2 51,71 92,112 l 6,2 q 4,0 124,-70 4,-3 4,-7 0,-25 -51,-138 17,-23 30,-52 149,-15 149,-31 z m 0,1024 0,-140 q 0,-16 -149,-31 -12,-27 -30,-52 51,-113 51,-138 0,-4 -4,-7 -122,-71 -124,-71 -8,0 -46,47 -38,47 -52,68 -20,-2 -30,-2 -10,0 -30,2 -14,-21 -52,-68 -38,-47 -46,-47 -2,0 -124,71 -4,3 -4,7 0,25 51,138 -18,25 -30,52 -149,15 -149,31 l 0,140 q 0,16 149,31 13,29 30,52 -51,113 -51,138 0,4 4,7 4,2 35,20 31,18 59,34 28,16 30,16 8,0 46,-46.5 38,-46.5 52,-67.5 20,2 30,2 10,0 30,-2 51,71 92,112 l 6,2 q 4,0 124,-70 4,-3 4,-7 0,-25 -51,-138 17,-23 30,-52 149,-15 149,-31 z"
         id="path11381"
         inkscape:connector-curvature="0" />
    </symbol>
    <symbol
       id="database"
       class="Web-Application-Icons">
      <title
         id="title12784">Database</title>
      <path
         transform="matrix(0.05,0,0,-0.05,0,76.8)"
         d="m 768,768 q 237,0 443,43 206,43 325,127 l 0,-170 Q 1536,699 1433,640 1330,581 1153,546.5 976,512 768,512 560,512 383,546.5 206,581 103,640 0,699 0,768 L 0,938 Q 119,854 325,811 531,768 768,768 Z M 768,0 q 237,0 443,43 206,43 325,127 l 0,-170 q 0,-69 -103,-128 -103,-59 -280,-93.5 Q 976,-256 768,-256 560,-256 383,-221.5 206,-187 103,-128 0,-69 0,0 L 0,170 Q 119,86 325,43 531,0 768,0 Z m 0,384 q 237,0 443,43 206,43 325,127 l 0,-170 Q 1536,315 1433,256 1330,197 1153,162.5 976,128 768,128 560,128 383,162.5 206,197 103,256 0,315 0,384 L 0,554 Q 119,470 325,427 531,384 768,384 Z m 0,1152 q 208,0 385,-34.5 177,-34.5 280,-93.5 103,-59 103,-128 l 0,-128 q 0,-69 -103,-128 Q 1330,965 1153,930.5 976,896 768,896 560,896 383,930.5 206,965 103,1024 0,1083 0,1152 l 0,128 q 0,69 103,128 103,59 280,93.5 177,34.5 385,34.5 z"
         id="path12786"
         inkscape:connector-curvature="0" />
    </symbol>
    <symbol
       id="clock-o"
       class="Web-Application-Icons">
      <title
         id="title10864">Clock Outlined</title>
      <path
         transform="matrix(0.05,0,0,-0.05,0,76.8)"
         d="m 896,992 0,-448 q 0,-14 -9,-23 -9,-9 -23,-9 l -320,0 q -14,0 -23,9 -9,9 -9,23 l 0,64 q 0,14 9,23 9,9 23,9 l 224,0 0,352 q 0,14 9,23 9,9 23,9 l 64,0 q 14,0 23,-9 9,-9 9,-23 z m 416,-352 q 0,148 -73,273 -73,125 -198,198 -125,73 -273,73 -148,0 -273,-73 Q 370,1038 297,913 224,788 224,640 224,492 297,367 370,242 495,169 620,96 768,96 q 148,0 273,73 125,73 198,198 73,125 73,273 z m 224,0 Q 1536,431 1433,254.5 1330,78 1153.5,-25 977,-128 768,-128 559,-128 382.5,-25 206,78 103,254.5 0,431 0,640 0,849 103,1025.5 206,1202 382.5,1305 559,1408 768,1408 977,1408 1153.5,1305 1330,1202 1433,1025.5 1536,849 1536,640 Z"
         id="path10866"
         inkscape:connector-curvature="0" />
    </symbol>
    <symbol
       id="server"
       class="Web-Application-Icons">
      <title
         id="title13309">Server</title>
      <path
         transform="matrix(0.05,0,0,-0.05,0,76.8)"
         d="m 128,128 1024,0 0,128 -1024,0 0,-128 z m 0,512 1024,0 0,128 -1024,0 0,-128 z M 1696,192 q 0,40 -28,68 -28,28 -68,28 -40,0 -68,-28 -28,-28 -28,-68 0,-40 28,-68 28,-28 68,-28 40,0 68,28 28,28 28,68 z m -1568,960 1024,0 0,128 -1024,0 0,-128 z M 1696,704 q 0,40 -28,68 -28,28 -68,28 -40,0 -68,-28 -28,-28 -28,-68 0,-40 28,-68 28,-28 68,-28 40,0 68,28 28,28 28,68 z m 0,512 q 0,40 -28,68 -28,28 -68,28 -40,0 -68,-28 -28,-28 -28,-68 0,-40 28,-68 28,-28 68,-28 40,0 68,28 28,28 28,68 z M 1792,384 1792,0 0,0 l 0,384 1792,0 z m 0,512 0,-384 -1792,0 0,384 1792,0 z m 0,512 0,-384 -1792,0 0,384 1792,0 z"
         id="path13311"
         inkscape:connector-curvature="0" />
    </symbol>
    <symbol
       id="apple"
       class="Brand-Icons">
      <title
         id="title12454">Apple</title>
      <path
         transform="matrix(0.05,0,0,-0.05,0,76.8)"
         d="m 1393,321 q -39,-125 -123,-250 -129,-196 -257,-196 -49,0 -140,32 -86,32 -151,32 -61,0 -142,-33 -81,-34 -132,-34 -152,0 -301,259 Q 0,392 0,634 q 0,228 113,374 112,144 284,144 72,0 177,-30 104,-30 138,-30 45,0 143,34 102,34 173,34 119,0 213,-65 52,-36 104,-100 -79,-67 -114,-118 -65,-94 -65,-207 0,-124 69,-223 69,-99 158,-126 z m -376,1173 q 0,-61 -29,-136 -30,-75 -93,-138 -54,-54 -108,-72 -37,-11 -104,-17 3,149 78,257 74,107 250,148 1,-3 2.5,-11 1.5,-8 2.5,-11 0,-4 0.5,-10 0.5,-6 0.5,-10 z"
         id="path12456"
         inkscape:connector-curvature="0" />
    </symbol>
    <symbol
       id="android"
       class="Brand-Icons">
      <title
         id="title12464">Android</title>
      <path
         transform="matrix(0.05,0,0,-0.05,0,76.8)"
         d="m 493,1053 q 16,0 27.5,11.5 11.5,11.5 11.5,27.5 0,16 -11.5,27.5 -11.5,11.5 -27.5,11.5 -16,0 -27,-11.5 -11,-11.5 -11,-27.5 0,-16 11,-27.5 11,-11.5 27,-11.5 z m 422,0 q 16,0 27,11.5 11,11.5 11,27.5 0,16 -11,27.5 -11,11.5 -27,11.5 -16,0 -27.5,-11.5 Q 876,1108 876,1092 q 0,-16 11.5,-27.5 Q 899,1053 915,1053 Z M 103,869 q 42,0 72,-30 30,-30 30,-72 l 0,-430 Q 205,294 175.5,264 146,234 103,234 60,234 30,264 0,294 0,337 l 0,430 q 0,42 30,72 30,30 73,30 z m 1060,-19 0,-666 q 0,-46 -32,-78 -32,-32 -77,-32 l -75,0 0,-227 q 0,-43 -30,-73 -30,-30 -73,-30 -43,0 -73,30 -30,30 -30,73 l 0,227 -138,0 0,-227 q 0,-43 -30,-73 -30,-30 -73,-30 -42,0 -72,30 -30,30 -30,73 l -1,227 -74,0 q -46,0 -78,32 -32,32 -32,78 l 0,666 918,0 z m -232,405 q 107,-55 171,-153.5 64,-98.5 64,-215.5 l -925,0 q 0,117 64,215.5 64,98.5 172,153.5 l -71,131 q -7,13 5,20 13,6 20,-6 l 72,-132 q 95,42 201,42 106,0 201,-42 l 72,132 q 7,12 20,6 12,-7 5,-20 z m 477,-488 0,-430 q 0,-43 -30,-73 -30,-30 -73,-30 -42,0 -72,30 -30,30 -30,73 l 0,430 q 0,43 30,72.5 30,29.5 72,29.5 43,0 73,-29.5 30,-29.5 30,-72.5 z"
         id="path12466"
         inkscape:connector-curvature="0" />
    </symbol>
    <symbol
       id="desktop"
       class="Web-Application-Icons">
      <title
         id="title11934">Desktop</title>
      <path
         transform="matrix(0.05,0,0,-0.05,0,76.8)"
         d="m 1792,544 0,832 q 0,13 -9.5,22.5 -9.5,9.5 -22.5,9.5 l -1600,0 q -13,0 -22.5,-9.5 Q 128,1389 128,1376 l 0,-832 q 0,-13 9.5,-22.5 Q 147,512 160,512 l 1600,0 q 13,0 22.5,9.5 9.5,9.5 9.5,22.5 z m 128,832 0,-1088 q 0,-66 -47,-113 -47,-47 -113,-47 l -544,0 q 0,-37 16,-77.5 16,-40.5 32,-71 16,-30.5 16,-43.5 0,-26 -19,-45 -19,-19 -45,-19 l -512,0 q -26,0 -45,19 -19,19 -19,45 0,14 16,44 16,30 32,70 16,40 16,78 l -544,0 Q 94,128 47,175 0,222 0,288 l 0,1088 q 0,66 47,113 47,47 113,47 l 1600,0 q 66,0 113,-47 47,-47 47,-113 z"
         id="path11936"
         inkscape:connector-curvature="0" />
    </symbol>
    <symbol
       id="symbol7334">
      <title
         id="title7336">Desktop Mac</title>
      <path
         d="M 42,4 6,4 C 3.79,4 2,5.79 2,8 l 0,24 c 0,2.21 1.79,4 4,4 l 14,0 -4,6 0,2 16,0 0,-2 -4,-6 14,0 c 2.21,0 4,-1.79 4,-4 L 46,8 C 46,5.79 44.21,4 42,4 Z M 42,28 6,28 6,8 42,8 42,28 Z"
         style="stroke:none"
         id="path7338"
         inkscape:connector-curvature="0" />
    </symbol>
    <symbol
       id="symbol15206">
      <title
         id="title15208">Cloud Download</title>
      <path
         d="M 38.71,20.07 C 37.35,13.19 31.28,8 24,8 18.22,8 13.21,11.28 10.7,16.07 4.69,16.72 0,21.81 0,28 0,34.63 5.37,40 12,40 l 26,0 c 5.52,0 10,-4.48 10,-10 0,-5.28 -4.11,-9.56 -9.29,-9.93 z M 34,26 24,36 14,26 l 6,0 0,-8 8,0 0,8 6,0 z"
         id="path15210"
         inkscape:connector-curvature="0" />
    </symbol>
    <symbol
       id="filter"
       class="Web-Application-Icons">
      <title
         id="title11579">Filter</title>
      <path
         transform="matrix(0.05,0,0,-0.05,0,76.8)"
         d="m 1403,1241 q 17,-41 -14,-70 L 896,678 896,-64 q 0,-42 -39,-59 -13,-5 -25,-5 -27,0 -45,19 L 531,147 q -19,19 -19,45 l 0,486 -493,493 q -31,29 -14,70 17,39 59,39 l 1280,0 q 42,0 59,-39 z"
         id="path11581"
         inkscape:connector-curvature="0" />
    </symbol>
  </defs>
  <sodipodi:namedview
     id="base"
     pagecolor="#ffffff"
     bordercolor="#666666"
     borderopacity="1.0"
     inkscape:pageopacity="0.0"
     inkscape:pageshadow="2"
     inkscape:zoom="0.98994949"
     inkscape:cx="363.58096"
     inkscape:cy="249.65548"
     inkscape:document-units="px"
     inkscape:current-layer="layer1"
     showgrid="false"
     inkscape:snap-global="true"
     inkscape:snap-bbox="true"
     inkscape:bbox-paths="false"
     inkscape:window-width="1920"
     inkscape:window-height="1050"
     inkscape:window-x="0"
     inkscape:window-y="0"
     inkscape:window-maximized="1"
     fit-margin-bottom="0.3"
     fit-margin-top="0"
     fit-margin-left="0"
     fit-margin-right="0"
     inkscape:snap-nodes="true" />
  <metadata
     id="metadata7">
    <rdf:RDF>
      <cc:Work
         rdf:about="">
        <dc:format>image/svg+xml</dc:format>
        <dc:type
           rdf:resource="http://purl.org/dc/dcmitype/StillImage" />
        <dc:title></dc:title>
      </cc:Work>
    </rdf:RDF>
  </metadata>
  <g
     inkscape:label="Layer 1"
     inkscape:groupmode="layer"
     id="layer1"
     transform="translate(-15.905789,-19.573243)">
    <use
       id="use31921"
       xlink:href="#cogs"
       x="0"
       y="0"
       width="100%"
       height="100%"
       transform="matrix(1.186669,0,0,1.1825466,438.54901,180.04016)" />
    <use
       id="use31972"
       xlink:href="#database"
       x="0"
       y="0"
       width="100%"
       height="100%"
       transform="matrix(1.0744048,0,0,0.98872598,352.94447,60.5455)" />
    <use
       id="use31997"
       xlink:href="#clock-o"
       x="0"
       y="0"
       width="100%"
       height="100%"
       transform="matrix(-1.5321169,0,0,1.517583,311.69443,361.34156)" />
    <use
       id="use47873"
       xlink:href="#server"
       x="0"
       y="0"
       width="100%"
       height="100%"
       transform="matrix(1.1240143,0,0,1.1291388,456.88599,327.9872)" />
    <use
       id="use48184"
       xlink:href="#apple"
       x="0"
       y="0"
       width="100%"
       height="100%"
       transform="matrix(0.56490199,0,0,0.53863225,500.47087,492.37132)" />
    <use
       id="use48209"
       xlink:href="#android"
       x="0"
       y="0"
       width="100%"
       height="100%"
       transform="matrix(0.56953727,0,0,0.52649099,447.08282,491.1954)" />
    <use
       id="use49118"
       xlink:href="#desktop"
       x="0"
       y="0"
       width="100%"
       height="100%"
       transform="matrix(0.53701342,0,0,0.56291476,559.992,494.56492)" />
    <use
       id="use59034"
       style="fill:#000000;stroke:#000000"
       xlink:href="#symbol15206"
       x="0"
       y="0"
       width="100%"
       height="100%"
       transform="matrix(1.8336053,0,0,1.7060622,55.043958,210.23175)" />
    <flowRoot
       xml:space="preserve"
       id="flowRoot59210"
       style="color:#000000;font-style:normal;font-variant:normal;font-weight:normal;font-stretch:normal;font-size:35.43307114px;line-height:125%;font-family:'Source Sans Pro';-inkscape-font-specification:'Source Sans Pro, Normal';text-align:start;writing-mode:lr-tb;text-anchor:start;clip-rule:nonzero;display:inline;overflow:visible;visibility:visible;opacity:1;isolation:auto;mix-blend-mode:normal;color-interpolation:sRGB;color-interpolation-filters:linearRGB;solid-color:#000000;solid-opacity:1;fill:#000000;fill-opacity:1;fill-rule:nonzero;stroke:#000000;stroke-width:1.53142631;stroke-linecap:butt;stroke-linejoin:miter;stroke-miterlimit:4;stroke-dasharray:none;stroke-dashoffset:0;stroke-opacity:1;color-rendering:auto;image-rendering:auto;shape-rendering:auto;text-rendering:auto;enable-background:accumulate"
       transform="translate(153.54318,-116.16753)"><flowRegion
         id="flowRegion59212"><rect
           id="rect59214"
           width="155.56349"
           height="56.568542"
           x="128.28937"
           y="345.25543" /></flowRegion><flowPara
         id="flowPara59218">Parser</flowPara></flowRoot>    <flowRoot
       xml:space="preserve"
       id="flowRoot59222"
       style="color:#000000;font-style:normal;font-variant:normal;font-weight:normal;font-stretch:normal;font-size:35.43307114px;line-height:125%;font-family:'Source Sans Pro';-inkscape-font-specification:'Source Sans Pro, Normal';text-align:start;writing-mode:lr-tb;text-anchor:start;clip-rule:nonzero;display:inline;overflow:visible;visibility:visible;opacity:1;isolation:auto;mix-blend-mode:normal;color-interpolation:sRGB;color-interpolation-filters:linearRGB;solid-color:#000000;solid-opacity:1;fill:#000000;fill-opacity:1;fill-rule:nonzero;stroke:#000000;stroke-width:1.53142631;stroke-linecap:butt;stroke-linejoin:miter;stroke-miterlimit:4;stroke-dasharray:none;stroke-dashoffset:0;stroke-opacity:1;color-rendering:auto;image-rendering:auto;shape-rendering:auto;text-rendering:auto;enable-background:accumulate"
       transform="translate(-27.274118,-59.599)"><flowRegion
         id="flowRegion59224"><rect
           id="rect59226"
           width="179.80716"
           height="74.751289"
           x="200.01021"
           y="554.35699" /></flowRegion><flowPara
         id="flowPara59230">Scheduler</flowPara></flowRoot>    <flowRoot
       xml:space="preserve"
       id="flowRoot59234"
       style="color:#000000;font-style:normal;font-variant:normal;font-weight:normal;font-stretch:normal;font-size:35.43307114px;line-height:125%;font-family:'Source Sans Pro';-inkscape-font-specification:'Source Sans Pro, Normal';text-align:center;writing-mode:lr-tb;text-anchor:middle;clip-rule:nonzero;display:inline;overflow:visible;visibility:visible;opacity:1;isolation:auto;mix-blend-mode:normal;color-interpolation:sRGB;color-interpolation-filters:linearRGB;solid-color:#000000;solid-opacity:1;fill:#000000;fill-opacity:1;fill-rule:nonzero;stroke:#000000;stroke-width:1.53142631;stroke-linecap:butt;stroke-linejoin:miter;stroke-miterlimit:4;stroke-dasharray:none;stroke-dashoffset:0;stroke-opacity:1;color-rendering:auto;image-rendering:auto;shape-rendering:auto;text-rendering:auto;enable-background:accumulate"
       transform="translate(-61.619305,-22.223357)"><flowRegion
         id="flowRegion59236"><rect
           id="rect59238"
           width="223.24374"
           height="48.487328"
           x="50.507626"
           y="189.69193"
           style="font-style:normal;font-variant:normal;font-weight:normal;font-stretch:normal;font-size:35.43307114px;line-height:125%;font-family:'Source Sans Pro';-inkscape-font-specification:'Source Sans Pro, Normal';text-align:center;writing-mode:lr-tb;text-anchor:middle" /></flowRegion><flowPara
         id="flowPara59264">Universities</flowPara><flowPara
         id="flowPara59250" /></flowRoot>    <flowRoot
       xml:space="preserve"
       id="flowRoot59268"
       style="color:#000000;font-style:normal;font-variant:normal;font-weight:normal;font-stretch:normal;font-size:35.43307114px;line-height:125%;font-family:'Source Sans Pro';-inkscape-font-specification:'Source Sans Pro, Normal';text-align:center;writing-mode:lr-tb;text-anchor:middle;clip-rule:nonzero;display:inline;overflow:visible;visibility:visible;opacity:1;isolation:auto;mix-blend-mode:normal;color-interpolation:sRGB;color-interpolation-filters:linearRGB;solid-color:#000000;solid-opacity:1;fill:#000000;fill-opacity:1;fill-rule:nonzero;stroke:#000000;stroke-width:1.53142631;stroke-linecap:butt;stroke-linejoin:miter;stroke-miterlimit:4;stroke-dasharray:none;stroke-dashoffset:0;stroke-opacity:1;color-rendering:auto;image-rendering:auto;shape-rendering:auto;text-rendering:auto;enable-background:accumulate"
       transform="translate(-31.314729,-3.0304576)"><flowRegion
         id="flowRegion59270"><rect
           id="rect59272"
           width="185.86807"
           height="44.446712"
           x="333.35034"
           y="13.925388"
           style="font-style:normal;font-variant:normal;font-weight:normal;font-stretch:normal;font-size:35.43307114px;line-height:125%;font-family:'Source Sans Pro';-inkscape-font-specification:'Source Sans Pro, Normal';text-align:center;writing-mode:lr-tb;text-anchor:middle" /></flowRegion><flowPara
         id="flowPara59276">Database</flowPara></flowRoot>    <flowRoot
       xml:space="preserve"
       id="flowRoot59280"
       style="color:#000000;font-style:normal;font-variant:normal;font-weight:normal;font-stretch:normal;font-size:35.43307114px;line-height:125%;font-family:'Source Sans Pro';-inkscape-font-specification:'Source Sans Pro, Normal';text-align:center;writing-mode:lr-tb;text-anchor:middle;clip-rule:nonzero;display:inline;overflow:visible;visibility:visible;opacity:1;isolation:auto;mix-blend-mode:normal;color-interpolation:sRGB;color-interpolation-filters:linearRGB;solid-color:#000000;solid-opacity:1;fill:#000000;fill-opacity:1;fill-rule:nonzero;stroke:#000000;stroke-width:1.53142631;stroke-linecap:butt;stroke-linejoin:miter;stroke-miterlimit:4;stroke-dasharray:none;stroke-dashoffset:0;stroke-opacity:1;color-rendering:auto;image-rendering:auto;shape-rendering:auto;text-rendering:auto;enable-background:accumulate"
       transform="translate(-65.659916,133.34015)"><flowRegion
         id="flowRegion59282"><rect
           id="rect59284"
           width="135.36044"
           height="49.497475"
           x="605.08136"
           y="216.96605" /></flowRegion><flowPara
         id="flowPara59288">API</flowPara></flowRoot>    <use
       id="use68712"
       xlink:href="#filter"
       x="0"
       y="0"
       width="100%"
       height="100%"
       transform="matrix(1.014328,0,0,1.0860925,210.2678,198.16864)" />
    <flowRoot
       xml:space="preserve"
       id="flowRoot68726"
       style="color:#000000;font-style:normal;font-variant:normal;font-weight:normal;font-stretch:normal;font-size:35.43307114px;line-height:125%;font-family:'Source Sans Pro';-inkscape-font-specification:'Source Sans Pro, Normal';text-align:center;writing-mode:lr-tb;text-anchor:middle;clip-rule:nonzero;display:inline;overflow:visible;visibility:visible;opacity:1;isolation:auto;mix-blend-mode:normal;color-interpolation:sRGB;color-interpolation-filters:linearRGB;solid-color:#000000;solid-opacity:1;fill:#000000;fill-opacity:1;fill-rule:nonzero;stroke:#000000;stroke-width:1.53142631;stroke-linecap:butt;stroke-linejoin:miter;stroke-miterlimit:4;stroke-dasharray:none;stroke-dashoffset:0;stroke-opacity:1;color-rendering:auto;image-rendering:auto;shape-rendering:auto;text-rendering:auto;enable-background:accumulate"
       transform="translate(-102.02541,-12.121831)"><flowRegion
         id="flowRegion68728"><rect
           id="rect68730"
           width="221.2234"
           height="110.10663"
           x="626.29456"
           y="198.78331" /></flowRegion><flowPara
         id="flowPara68732">Business</flowPara><flowPara
         id="flowPara68740">Logic</flowPara></flowRoot>  </g>
</svg>
